<svg width="73" height="183" viewBox="0 0 73 183" fill="none" xmlns="http://www.w3.org/2000/svg">
<path d="M49.2028 1.76839C47.9633 2.88234 46.5149 5.09411 47.0489 6.87288C49.1184 13.7668 51.8402 20.4494 53.9578 27.3354C56.0405 34.1076 57.844 40.9659 59.3646 47.886C62.3896 61.6532 64.3271 75.6925 65.0732 89.7703C65.4477 96.8354 65.532 103.916 65.3201 110.988C65.1191 117.698 64.7508 124.587 63.6695 131.14C61.5237 144.145 56.8134 156.382 45.7942 164.057C36.185 170.749 21.8222 171.167 12.4274 163.882C15.3016 163.824 18.2118 163.865 21.0624 163.534C22.6393 163.351 23.9793 161.531 24.4436 160.167C24.7626 159.23 25.0592 156.941 23.4574 156.883C20.241 156.766 16.9913 157.112 13.7798 157.295C10.58 157.477 7.37997 157.659 4.18028 157.841C2.22613 157.952 -0.330022 161.728 0.966533 163.518C3.32517 166.774 5.67162 170.04 8.05613 173.276C10.382 176.433 12.6541 179.701 15.386 182.516C15.997 183.145 17.1833 182.083 17.5129 181.665C18.0627 180.967 18.4684 180.017 18.075 179.153C16.5717 175.847 14.6016 172.725 12.6809 169.63C15.4635 171.839 18.7185 173.421 22.2605 174.265C28.3208 175.708 34.674 175.063 40.4376 172.771C54.6441 167.121 63.6462 152.965 67.8771 138.865C70.0122 131.749 70.9731 124.263 71.5365 116.873C72.1042 109.428 72.2955 101.947 72.1842 94.4806C71.9611 79.4902 70.4621 64.5277 67.6683 49.7978C66.1014 41.5368 64.1346 33.3519 61.7744 25.2817C60.6175 21.3261 59.366 17.3981 58.0204 13.5024C56.5984 9.3845 55.1669 5.27976 53.1676 1.40174C52.3328 -0.21564 50.0985 0.963258 49.2028 1.76839Z" fill="#FFDA56"/>
</svg>
