<svg width="46" height="128" viewBox="0 0 46 128" fill="none" xmlns="http://www.w3.org/2000/svg">
<path d="M45.714 88.4597C38.28 90.1012 37.5537 91.7045 35.0338 110.563C33.8795 109.109 32.9608 108.163 32.2865 107.07C25.957 96.8152 21.1069 85.8915 17.5617 74.4304C11.7528 55.6496 7.35145 36.5507 5.03521 17.0433C4.55005 12.9571 3.32767 8.70692 5.84208 4.62455C6.32547 3.8398 5.07417 2.00736 4.62308 0.65831C4.03323 0.657545 3.44339 0.656771 2.85338 0.656115C2.07862 2.90706 0.748803 5.13067 0.642423 7.41455C0.406131 12.4932 0.329198 17.6584 0.989987 22.6885C3.4345 41.2976 6.80787 59.795 12.9709 77.5731C16.6572 88.2072 21.8754 98.3336 26.5282 108.634C27.7515 111.342 29.4333 113.849 31.5449 117.58C29.3443 116.493 28.0156 116.133 27.0786 115.327C20.7372 109.875 14.4916 104.313 8.18376 98.8225C6.66979 97.5043 5.15786 94.718 2.92899 96.7005C0.655937 98.7225 3.32568 100.523 4.59721 101.991C12.8068 111.473 22.5125 119.18 33.2044 125.802C38.1799 128.883 40.9802 127.008 41.1249 121.553C41.2488 116.88 41.2157 112.178 40.8482 107.519C40.3291 100.934 41.3697 94.8097 45.714 88.4597Z" fill="#FFDA56"/>
</svg>
