<svg width="59" height="110" viewBox="0 0 59 110" fill="none" xmlns="http://www.w3.org/2000/svg">
<path d="M17.3331 47.1218C12.1151 64.4952 22.2368 83.3785 44.419 97.7373C43.9595 93.002 37.8648 90.0303 40.534 84.8898C41.3177 84.717 42.0209 84.3757 42.189 84.552C47.2343 89.8349 52.36 95.0518 57.1533 100.56C58.7758 102.425 58.4314 105.202 55.8827 106.092C50.5164 107.965 45.1028 110.046 38.1542 109.747C39.9423 107.052 41.1901 105.172 42.1234 103.766C36.0398 99.0754 29.6573 94.9429 24.2159 89.8012C11.3677 77.6603 5.69623 62.824 9.7311 45.1181C10.3704 42.3131 9.48111 40.6308 7.88996 38.5394C1.21665 29.7669 -0.812219 19.9007 2.23137 9.30436C3.33823 5.45125 4.75307 1.30032 10.8439 0.135202C6.33835 6.33618 5.06197 12.5219 5.82241 19.1263C6.56702 25.5955 8.49041 31.5498 13.3011 36.0841C18.4726 33.1876 23.0779 29.8091 28.2308 27.9471C33.3897 26.083 39.0772 25.0342 44.567 24.915C50.2031 24.7925 54.1595 28.6821 55.2434 33.4222C56.3255 38.1529 54.1771 42.7399 49.0715 45.6018C41.0487 50.0989 32.4389 50.9075 23.5214 48.8732C21.431 48.3964 19.3868 47.709 17.3331 47.1218ZM20.0364 41.3938C29.0486 44.9927 36.835 44.4215 44.5651 40.913C47.0868 39.7684 49.4552 38.1342 48.489 34.8289C47.6601 31.9933 45.021 31.5072 42.5434 31.6453C34.3473 32.1019 27.1591 35.0317 20.0364 41.3938Z" fill="#FFD700"/>
</svg>
