<svg width="82" height="148" viewBox="0 0 82 148" fill="none" xmlns="http://www.w3.org/2000/svg">
<path d="M75.1984 123.874C77.6852 128.36 85.7569 137.062 77.3685 139.022C70.9533 140.52 64.9176 144.092 58.5331 145.907C56.1557 146.583 52.1403 148.13 50.0529 146.045C48.3393 144.334 48.9733 142.134 50.6221 140.696C56.0197 135.99 65.5731 138.314 71.0969 134.379C64.6248 130.269 56.1265 128.726 49.1773 125.4C41.8206 121.879 34.5029 118.39 27.5178 114.151C21.7815 110.67 13.8394 105.974 13.6452 98.3465C13.4539 90.8336 21.2894 85.2917 26.7969 81.6007C29.9426 79.4925 33.0841 77.3179 36.2518 75.2818C39.3045 73.3195 43.209 70.9232 44.7352 67.3953C47.4792 61.0522 35.8238 54.3668 31.4179 51.6281C24.28 47.191 17.1117 42.8364 10.2014 38.0301C4.91851 34.3558 -1.34624 28.9657 1.31235 21.8806C4.11509 14.4115 12.97 10.1589 19.762 7.15488C27.1994 3.86548 36.2308 1.23412 44.4013 0.909266C45.3521 0.871518 52.4996 1.10759 49.8984 3.43258C49.6064 3.69355 46.7469 3.40251 46.1395 3.47508C43.8942 3.7435 41.7664 4.22276 39.5659 4.73726C33.2535 6.21327 27.3857 8.28894 21.5684 10.7166C16.4114 12.8687 4.62136 18.2828 5.18078 25.4806C5.46739 29.1676 9.68518 31.5282 12.3157 33.4278C15.882 36.0032 19.7585 38.099 23.526 40.3562C32.4765 45.719 54.587 54.6625 51.2309 68.4228C49.4696 75.6441 40.7607 80.5568 35.0384 84.3506C30.6882 87.2348 17.7129 93.9486 21.6013 100.636C23.5991 104.071 28.4069 106.377 31.7409 108.24C35.8226 110.521 39.8968 112.797 44.0336 114.978C48.4014 117.281 52.7871 119.545 57.1925 121.773C61.3771 123.89 65.5946 126.978 69.9625 128.597C69.3133 125.004 62.2431 117.444 64.4582 113.82C67.6622 108.579 74.0617 121.823 75.1984 123.874Z" fill="#FFDA56"/>
</svg>
