<svg width="47" height="168" viewBox="0 0 47 168" fill="none" xmlns="http://www.w3.org/2000/svg">
<path d="M15.2886 0.0295278C22.2044 -0.0932919 30.4583 2.95999 31.7575 10.6296C33.2176 19.2492 25.0426 25.9534 20.2531 31.955C18.2886 34.4167 14.8521 37.7883 16.4926 41.2545C18.0314 44.5052 23.4509 45.37 26.5232 46.2726C33.6083 48.3538 44.9638 52.8933 38.4473 61.9379C33.9324 68.2044 26.0148 71.4012 20.6661 76.8462C17.2983 80.2745 15.7117 82.0932 21.0317 83.4338C25.3734 84.5278 30.2012 85.2054 33.9316 87.8753C41.6234 93.3801 33.664 100.52 28.6933 104.743C26.7092 106.428 15.8274 113.606 16.9357 116.362C17.727 118.33 28.1886 120.676 30.176 121.881C33.2639 123.753 36.4349 126.516 37.0081 130.227C38.3669 139.027 27.1696 144.97 27.5027 154.027C31.3905 150.413 34.7913 146.235 39.0229 143.007C41.5447 141.084 49.5226 136.504 46.2049 143.639C43.9877 148.408 39.4851 152.981 36.2068 157.082C33.8777 159.995 30.4001 166.187 26.7955 167.624C22.4358 169.362 18.4099 164.651 15.6409 161.997C11.7168 158.236 7.77682 154.579 4.06879 150.589C2.63845 149.05 -0.730288 146.456 0.142333 144.13C1.19458 141.326 4.71111 142.469 6.57229 143.469C8.77686 144.653 10.6337 146.609 12.5329 148.212C13.5027 149.03 17.6404 153.61 18.9776 153.475C18.4818 153.525 20.4007 145.98 20.7605 145.2C22.6351 141.134 25.87 138.272 28.2211 134.557C33.4759 126.254 17.4951 125.348 13.0003 121.958C4.89086 115.842 13.2382 108.248 18.6726 103.994C22.1731 101.254 26.4413 98.8228 29.2582 95.309C31.9637 91.9344 28.1979 91.7846 24.7053 90.86C18.6995 89.2701 7.85458 88.5379 10.5173 79.371C12.9806 70.891 23.5531 66.2306 29.733 60.901C33.2317 57.8836 34.43 56.9446 29.724 54.8532C25.4877 52.9705 20.7881 52.4744 16.5912 50.4832C8.86068 46.8154 6.46566 39.3414 10.9429 32.0795C14.0706 27.0064 29.327 15.7929 23.8844 9.21797C20.7977 5.48886 15.1629 6.59381 11.3852 4.61382C5.92507 1.75195 12.0761 0.0295278 15.2886 0.0295278C19.0486 -0.037253 14.1878 0.0295278 15.2886 0.0295278Z" fill="#FFDA56"/>
</svg>
