<svg width="42" height="122" viewBox="0 0 42 122" fill="none" xmlns="http://www.w3.org/2000/svg">
<path d="M12.8241 114.714C16.7719 113.971 20.7196 113.228 25.0676 112.409C24.6858 115.096 23.0369 116.53 21.1512 117.082C15.5535 118.72 9.90463 120.303 4.17132 121.308C0.886603 121.884 -0.746596 119.541 0.347814 116.403C2.17455 111.165 4.27082 106.02 6.25996 100.839C6.37613 100.536 6.47449 100.125 6.7103 99.9881C7.46549 99.5491 8.2814 99.2151 9.07391 98.8405C9.37917 99.5257 10.0289 100.268 9.92678 100.886C9.58251 102.969 8.97365 105.009 8.461 107.064C8.19226 108.142 7.91291 109.216 8.28342 110.836C9.56969 109.745 10.9062 108.708 12.1351 107.556C37.1139 84.1364 43.5627 47.9569 28.1618 17.197C26.193 13.2646 23.7395 9.57723 21.5336 5.76284C20.765 4.43391 20.0664 3.06428 19.3359 1.71322C19.5864 1.44678 19.8369 1.18034 20.0875 0.913801C21.0005 1.28778 22.1825 1.41841 22.7779 2.07994C24.8457 4.37731 26.9029 6.72868 28.622 9.29048C46.0305 35.2327 45.5155 70.4001 27.1306 96.9773C23.6246 102.046 19.187 106.469 15.1477 111.162C14.3166 112.128 13.3445 112.972 12.4375 113.872C12.5663 114.153 12.6952 114.434 12.8241 114.714Z" fill="#FFDA56"/>
</svg>
