<svg width="52" height="94" viewBox="0 0 52 94" fill="none" xmlns="http://www.w3.org/2000/svg">
<path d="M37.7975 29.1584C36.2196 31.9981 35.0088 34.8446 33.2046 37.2451C31.2104 39.8986 28.9417 42.505 26.301 44.4722C23.2037 46.7794 19.5269 46.0811 17.1295 43.5204C14.5568 40.7726 14.418 37.1855 16.8972 33.893C20.1001 29.6394 24.5279 27.127 29.4512 25.3876C30.6535 24.9628 31.8885 24.6312 33.0357 24.2791C35.76 16.609 34.2718 14.1758 20.0367 2.95962C21.4342 0.315975 23.574 0.817478 25.709 1.64956C32.8669 4.43911 39.0998 13.5207 39.1514 21.1628C39.1567 21.9362 39.1247 22.71 39.107 23.6379C40.1508 23.98 41.0639 24.232 41.9416 24.5746C48.271 27.0451 52.0692 32.4324 51.3663 39.1899C50.9604 43.0929 49.748 47.0405 48.1963 50.6675C45.5201 56.9229 41.2519 62.2288 36.4286 66.9693C30.6003 72.6977 24.4949 78.1442 18.5168 83.7206C17.6218 84.5554 16.7669 85.4332 15.6294 86.5504C18.4292 87.0802 20.7758 87.3467 22.992 88.0337C23.8382 88.2959 25.0981 89.7929 24.9231 90.2514C24.5472 91.2362 23.3842 91.9387 22.4897 92.6931C22.2899 92.8615 21.8691 92.7733 21.5495 92.7927C16.4521 93.1002 11.3486 93.3304 6.25912 93.7349C1.76407 94.0922 0.791514 93.4145 0.432783 88.965C0.0211431 83.8583 1.37445 79.1036 3.59511 74.5777C4.31294 73.1148 5.29009 71.7402 7.59088 72.835C8.84513 77.2327 5.64608 81.2703 5.82231 86.2992C7.25312 85.2586 8.28865 84.6376 9.16919 83.8445C16.79 76.9798 24.6106 70.314 31.8931 63.1055C35.8388 59.1996 39.1699 54.5551 42.1702 49.8555C44.0143 46.9667 45.1984 43.4325 45.811 40.0319C46.8378 34.3331 43.9914 30.6916 37.7975 29.1584ZM31.0858 31.5163L30.1939 30.6119C27.1395 31.4599 24.4608 33.0171 22.1754 35.257C20.0633 37.3271 19.5708 39.0984 20.897 40.0831C22.7856 41.4855 24.2898 40.1729 25.403 38.8838C27.427 36.5401 29.205 33.9839 31.0858 31.5163Z" fill="#FFD700"/>
</svg>
