<svg width="72" height="161" viewBox="0 0 72 161" fill="none" xmlns="http://www.w3.org/2000/svg">
<path d="M48.7131 110.101C58.5832 94.5311 64.6087 73.9335 65.5263 55.5746C66.0468 45.1637 64.5896 34.6959 62.3958 24.5322C61.2598 19.269 59.8909 14.1062 58.2395 8.9831C57.76 7.49557 54.5574 1.74336 55.6386 0.540921C59.2757 -3.50414 66.4973 18.9585 67.1015 21.4326C69.6562 31.894 71.7301 42.636 71.6307 53.4376C71.4639 71.5566 67.6698 91.5629 59.1396 107.655C54.1728 117.024 49.2931 126.467 42.3017 134.639C39.3616 138.075 36.0991 141.248 32.5652 144.074C30.0649 146.073 27.4568 148.057 24.7192 149.724C22.6922 150.958 19.4559 151.504 17.7459 153C21.3393 154.842 26.707 153.487 30.5695 155.118C35.1622 157.057 31.7462 159.426 28.454 159.794C23.2145 160.382 17.9231 160.087 12.6648 160.047C8.18362 160.012 2.44718 161.051 1.31989 155.686C0.330026 150.976 1.16328 145.744 1.18481 140.99C1.19919 137.811 -0.411684 130.888 2.67601 128.685C12.3253 121.8 7.14308 147.193 7.54864 149.08C9.29918 148.411 10.8365 146.814 12.4735 145.843C14.841 144.438 17.3845 143.387 19.7477 141.971C24.2037 139.3 28.5025 136.051 32.3397 132.551C38.9945 126.481 44.9921 118.287 48.7131 110.101C48.1751 111.285 52.2839 104.468 48.7131 110.101Z" fill="#222221"/>
</svg>
